<svg width="534" height="534" viewBox="0 0 534 534" fill="none" xmlns="http://www.w3.org/2000/svg">
<path d="M130.047 267.062C146.264 278.915 166.234 285.917 187.82 285.917V248.188C166.234 248.188 146.264 255.19 130.047 267.062Z" fill="#FC0000"/>
<path d="M403.947 267.062C403.849 267.136 403.731 267.222 403.627 267.29C395.558 273.139 386.547 277.799 376.888 280.992C367.229 284.185 356.905 285.917 346.192 285.917C379.477 285.917 406.548 312.988 406.548 346.272C406.548 356.695 403.904 366.502 399.226 375.064C397.987 340.54 369.51 312.815 334.678 312.815C314.911 312.815 297.209 321.741 285.337 335.757C280.08 286.607 238.351 248.182 187.814 248.182C166.228 248.182 146.257 255.184 130.041 267.055C105.607 284.9 89.7232 313.765 89.7232 346.272C89.7232 400.36 133.72 444.357 187.808 444.357H245.045V406.641H187.808C154.523 406.641 127.439 379.551 127.439 346.266C127.439 335.856 130.096 326.037 134.774 317.475C136.001 352.017 164.49 379.723 199.322 379.723C219.077 379.723 236.791 370.798 248.644 356.782C253.914 405.95 295.643 444.357 346.18 444.357C400.274 444.357 444.271 400.36 444.271 346.272C444.271 313.771 428.374 284.887 403.941 267.055L403.947 267.062ZM199.328 342.013C184.51 342.013 172.454 329.957 172.454 315.139C172.454 300.321 184.51 288.265 199.328 288.265C214.145 288.265 226.202 300.321 226.202 315.139C226.202 329.957 214.145 342.013 199.328 342.013ZM334.678 404.28C319.861 404.28 307.804 392.236 307.804 377.424C307.804 362.613 319.861 350.55 334.678 350.55C349.496 350.55 361.553 362.594 361.553 377.424C361.553 392.254 349.496 404.28 334.678 404.28Z" fill="#660099"/>
<path d="M346.186 89.7293H288.949V127.458H346.186C379.471 127.458 406.542 154.529 406.542 187.814C406.542 198.237 403.886 208.043 399.22 216.605C397.981 182.063 369.504 154.357 334.672 154.357C314.905 154.357 297.203 163.282 285.331 177.298C280.073 128.148 238.345 89.7231 187.808 89.7231C133.72 89.7231 89.7231 133.733 89.7231 187.808C89.7231 220.309 105.607 249.174 130.041 267.049C146.257 255.178 166.228 248.176 187.814 248.176C154.529 248.176 127.458 221.104 127.458 187.801C127.458 177.391 130.102 167.572 134.78 159.01C136.007 193.552 164.496 221.271 199.328 221.271C219.083 221.271 236.797 212.346 248.65 198.311C253.92 247.479 295.649 285.898 346.186 285.898C356.899 285.898 367.223 284.166 376.882 280.973C386.541 277.78 395.552 273.121 403.62 267.271C403.719 267.197 403.836 267.111 403.941 267.043C428.374 249.18 444.271 220.303 444.271 187.801C444.271 133.714 400.274 89.717 346.18 89.717L346.186 89.7293ZM199.328 183.555C184.51 183.555 172.454 171.498 172.454 156.68C172.454 141.863 184.51 129.806 199.328 129.806C214.145 129.806 226.202 141.863 226.202 156.68C226.202 171.498 214.145 183.555 199.328 183.555ZM334.678 245.821C319.861 245.821 307.804 233.777 307.804 218.966C307.804 204.154 319.861 192.091 334.678 192.091C349.496 192.091 361.553 204.148 361.553 218.966C361.553 233.783 349.496 245.821 334.678 245.821Z" fill="#660099"/>
<path d="M407.978 270.181C407.442 270.587 406.912 270.988 406.363 271.395C406.265 271.469 406.148 271.555 406.043 271.623C397.968 277.472 388.963 282.132 379.298 285.325C374.651 286.854 369.843 288.068 364.887 288.875C358.995 286.952 352.714 285.917 346.186 285.917C356.899 285.917 367.223 284.185 376.882 280.992C386.541 277.799 395.552 273.139 403.62 267.29C403.719 267.216 403.836 267.129 403.941 267.062C405.315 268.06 406.653 269.096 407.972 270.181H407.978Z" fill="#330066"/>
<path d="M187.82 248.188C166.234 248.188 146.264 255.19 130.047 267.062C128.648 266.038 127.273 264.966 125.929 263.869C126.274 263.61 126.62 263.351 126.971 263.086C139.317 254.05 153.857 247.824 169.624 245.384C175.369 247.202 181.477 248.182 187.82 248.182V248.188Z" fill="#330066"/>
<path d="M267 533.042C195.944 533.042 129.134 505.366 78.881 455.119C28.6276 404.89 0.958374 338.081 0.958374 267C0.958374 195.919 28.6338 129.134 78.881 78.881C129.134 28.6338 195.938 0.958374 267 0.958374C338.062 0.958374 404.89 28.6338 455.119 78.8872C505.366 129.134 533.042 195.944 533.042 267.006C533.042 413.704 413.692 533.048 267 533.048V533.042ZM267 22.6179C201.725 22.6179 140.359 48.0374 94.1981 94.1981C48.0374 140.359 22.6179 201.725 22.6179 267C22.6179 332.275 48.0374 393.66 94.1981 439.802C140.359 485.963 201.732 511.388 267 511.388C401.753 511.388 511.382 401.759 511.382 267.006C511.382 201.732 485.963 140.365 439.802 94.2042C393.66 48.0436 332.293 22.6241 267 22.6241V22.6179Z" fill="#660099"/>
</svg>
