<svg width="630" height="314" viewBox="0 0 630 314" fill="none" xmlns="http://www.w3.org/2000/svg">
<g clip-path="url(#clip0_1_14)">
<path d="M370.18 200.29H397.94V169.82H423.74V250.61H397.94V219.33H370.18V250.61H344.38V169.82H370.18V200.29Z" fill="#660099"/>
<path d="M437.92 224.65V169.83H463.72V221.6C463.72 233.72 493.6 233.49 493.6 221.6V169.83H519.4V224.65C519.4 242.89 498.88 251.89 478.51 251.77C458.14 251.77 437.92 242.88 437.92 224.65Z" fill="#660099"/>
<path d="M559.23 250.62H533.43V169.83H553.95L581.71 201.11L609.47 169.83H629.69V250.62H604.04V210.68L581.56 232.01L559.23 210.45V250.62Z" fill="#660099"/>
<path d="M370.18 93.74H397.94V63.27H423.74V144.06H397.94V112.78H370.18V144.06H344.38V63.27H370.18V93.74Z" fill="#660099"/>
<path d="M437.92 118.1V63.28H463.72V115.05C463.72 127.17 493.6 126.94 493.6 115.05V63.28H519.4V118.1C519.4 136.34 498.88 145.34 478.51 145.22C458.14 145.22 437.92 136.33 437.92 118.1Z" fill="#660099"/>
<path d="M559.23 144.07H533.43V63.27H553.95L581.71 94.55L609.47 63.27H629.69V144.06H604.04V104.12L581.56 125.45L559.23 103.89V144.06V144.07Z" fill="#660099"/>
<path d="M76.58 156.96C86.09 163.91 97.81 168.02 110.47 168.02V145.88C97.81 145.88 86.09 149.99 76.58 156.95V156.96Z" fill="#660099"/>
<path d="M237.27 156.96C237.21 157 237.14 157.05 237.08 157.1C232.34 160.53 227.06 163.27 221.39 165.14C215.72 167.01 209.67 168.03 203.38 168.03C222.91 168.03 238.79 183.91 238.79 203.44C238.79 209.56 237.24 215.31 234.5 220.33C233.77 200.08 217.07 183.81 196.63 183.81C185.03 183.81 174.65 189.05 167.68 197.27C164.6 168.43 140.11 145.89 110.47 145.89C97.81 145.89 86.09 150 76.58 156.96C62.25 167.43 52.93 184.36 52.93 203.43C52.93 235.16 78.74 260.97 110.47 260.97H144.05V238.84H110.47C90.94 238.84 75.05 222.95 75.05 203.42C75.05 197.31 76.61 191.55 79.35 186.53C80.07 206.79 96.78 223.05 117.22 223.05C128.81 223.05 139.2 217.81 146.16 209.59C149.25 238.43 173.73 260.97 203.38 260.97C235.11 260.97 260.92 235.16 260.92 203.43C260.92 184.36 251.59 167.42 237.26 156.96H237.27ZM117.22 200.93C108.53 200.93 101.46 193.86 101.46 185.17C101.46 176.48 108.53 169.41 117.22 169.41C125.91 169.41 132.98 176.48 132.98 185.17C132.98 193.86 125.91 200.93 117.22 200.93ZM196.63 237.46C187.94 237.46 180.87 230.4 180.87 221.7C180.87 213 187.94 205.94 196.63 205.94C205.32 205.94 212.39 213 212.39 221.7C212.39 230.4 205.32 237.46 196.63 237.46Z" fill="#660099"/>
<path d="M203.38 52.93H169.8V75.07H203.38C222.91 75.07 238.79 90.95 238.79 110.48C238.79 116.6 237.23 122.35 234.5 127.37C233.77 107.11 217.07 90.85 196.63 90.85C185.03 90.85 174.65 96.09 167.68 104.31C164.6 75.47 140.11 52.93 110.47 52.93C78.74 52.93 52.93 78.75 52.93 110.47C52.93 129.54 62.25 146.47 76.58 156.96C86.09 150 97.81 145.89 110.47 145.89C90.94 145.89 75.06 130.01 75.06 110.47C75.06 104.36 76.61 98.6 79.35 93.58C80.07 113.84 96.78 130.11 117.22 130.11C128.81 130.11 139.2 124.87 146.16 116.64C149.25 145.48 173.73 168.03 203.38 168.03C209.67 168.03 215.72 167.01 221.39 165.14C227.06 163.27 232.34 160.53 237.08 157.1C237.14 157.06 237.21 157.01 237.27 156.96C251.6 146.48 260.93 129.54 260.93 110.47C260.93 78.74 235.12 52.93 203.39 52.93H203.38ZM117.22 107.97C108.53 107.97 101.46 100.9 101.46 92.21C101.46 83.52 108.53 76.45 117.22 76.45C125.91 76.45 132.98 83.52 132.98 92.21C132.98 100.9 125.91 107.97 117.22 107.97ZM196.63 144.5C187.94 144.5 180.87 137.44 180.87 128.74C180.87 120.04 187.94 112.98 196.63 112.98C205.32 112.98 212.39 120.05 212.39 128.74C212.39 137.43 205.32 144.5 196.63 144.5Z" fill="#660099"/>
<path d="M239.63 158.79C239.32 159.03 239 159.26 238.68 159.5C238.62 159.54 238.55 159.59 238.49 159.64C233.75 163.07 228.47 165.81 222.8 167.68C220.07 168.58 217.25 169.29 214.35 169.76C210.89 168.63 207.21 168.02 203.38 168.02C209.67 168.02 215.72 167 221.39 165.13C227.06 163.26 232.34 160.52 237.08 157.09C237.14 157.05 237.21 157 237.27 156.95C238.07 157.53 238.86 158.14 239.63 158.78V158.79Z" fill="#330066"/>
<path d="M110.47 145.89C97.81 145.89 86.09 150 76.58 156.96C75.76 156.36 74.95 155.73 74.17 155.09C74.37 154.94 74.58 154.78 74.78 154.63C82.02 149.33 90.55 145.68 99.8 144.24C103.17 145.31 106.75 145.88 110.47 145.88V145.89Z" fill="#330066"/>
<path d="M156.93 313.85C115.02 313.85 75.61 297.53 45.97 267.89C16.32 238.26 0 198.85 0 156.93C0 115.01 16.32 75.6 45.96 45.96C75.6 16.32 115.01 0 156.93 0C198.85 0 238.26 16.32 267.89 45.96C297.53 75.6 313.85 115.01 313.85 156.92C313.85 243.45 243.45 313.85 156.92 313.85H156.93ZM156.93 14.4C118.86 14.4 83.07 29.23 56.15 56.15C29.23 83.07 14.4 118.86 14.4 156.93C14.4 195 29.23 230.8 56.15 257.71C83.07 284.63 118.86 299.46 156.93 299.46C235.52 299.46 299.45 235.52 299.45 156.94C299.45 118.87 284.62 83.08 257.7 56.16C230.79 29.24 195 14.41 156.92 14.41L156.93 14.4Z" fill="#660099"/>
</g>
<defs>
<clipPath id="clip0_1_14">
<rect width="629.7" height="313.85" fill="white"/>
</clipPath>
</defs>
</svg>
