<?xml version="1.0" encoding="UTF-8"?>
<svg xmlns="http://www.w3.org/2000/svg" version="1.1" viewBox="0 0 282.5 305.8">
  <defs>
    <style>
      .cls-1 {
        fill: #e2d8bf;
      }

      .cls-2 {
        fill: #635a57;
      }

      .cls-3 {
        fill: #d8a656;
      }

      .cls-4 {
        fill: #4c3d3d;
      }

      .cls-5 {
        fill: #443239;
      }

      .cls-6 {
        fill: #f4e9d6;
      }

      .cls-7 {
        isolation: isolate;
      }

      .cls-8 {
        fill: #5a4949;
      }

      .cls-9 {
        fill: #d3c6a9;
      }

      .cls-10 {
        fill: #d27558;
      }

      .cls-11 {
        fill: #e8dfc8;
      }

      .cls-12 {
        fill: #efd1a0;
      }

      .cls-13 {
        fill: #e79b69;
      }

      .cls-14 {
        fill: #e8dec5;
      }

      .cls-15 {
        fill: #e5c58c;
      }

      .cls-16 {
        fill: #f2ecda;
      }

      .cls-17 {
        fill: #edb984;
      }

      .cls-18 {
        fill: #c66d76;
        mix-blend-mode: multiply;
        opacity: .6;
      }

      .cls-19 {
        fill: #ddd2b8;
      }
    </style>
  </defs>
  <!-- Generator: Adobe Illustrator 28.7.1, SVG Export Plug-In . SVG Version: 1.2.0 Build 142)  -->
  <g class="cls-7">
    <g id="_x31_">
      <g>
        <path class="cls-4" d="M192.4,89.8c-1.1-1.1-2.8-1.7-3.8-.6.6-1.7,0-3.6-1.2-5-1.1-1.3-2.6-2.2-4.1-3-.6-.3-1.3-.7-2-.5-.6.2-1,.7-1.4,1.3-.8,1.3-1.5,2.7-1.9,4.1l-9.6,34.2c-.2,1.6,1.8,2.8,3.2,2.3,1.4-.6,2.2-2.3,2.4-4,.5.5,1.4.4,1.7-.2.2-.4.3-.9.5-1.3.3-.5.9-.7,1.4-1,1.2-.6,2-1.8,2.3-3.2.2-.9.1-1.9.5-2.8.4-.9,1.4-1.5,2.1-1,.6.5.6,1.5,1.2,1.9.8.5,1.7-.4,2.2-1.3.5-.9,1.1-1.9,1.5-2.9.2.6.9.8,1.4.5.5-.3.8-.8,1.1-1.4.6-1.3.9-3,0-4,1,.4,2-.2,2.8-1.1,2.7-3,2.5-8.4-.3-11.2Z"/>
        <path class="cls-4" d="M146.1,77.8c-3.5-2.4-6.5-1.5-7,1.1-.2,1.1-1.2,2-1.1,3.1,0,1.1.9,2.4,2.1,2.9-1.7-.1-3.6-.1-4.4,1.1-.8,1.2,0,2.8,1.2,3.9,1.5,1.5,3.4,2.7,5.5,3.4-1.5.9-1.3,3.3.3,4.4-2.2,0-3.9,1.7-3.8,3.6.1,1.9,1.7,3.7,3.8,4.8.7,1-.8,1.9-.9,3.1,0,.6.3,1.3.8,1.8,1.2,1.3,3.2,2.1,5.1,2.1l4.5-36.7c-1.6-1.7-4.6-.9-6.1,1.6Z"/>
        <path class="cls-16" d="M94.8,303.3h117.9s-14.5-113.4-1.9-145c-8-4.7-46.9-24.1-60.2-24.2-9.7,0-49.6,8-49.6,8,0,0-11.3,75.7-6.1,161.2Z"/>
        <g>
          <path class="cls-1" d="M196.8,264.6c-3.2,9.7-15.8,29.4-17.3,38.7h35s-8.2-68.5-3.4-106.7c.7-5.8,2.1-13.6-2.9-13.7-9.3,18.6-7.5,69.9-11.4,81.7Z"/>
          <path class="cls-14" d="M100.6,161.9s-13.2,49.6-8,141.4h60.5c-25.1-17.5-40.8-100.5-41-131-.1-10.7-9.8-11.2-11.4-10.5Z"/>
        </g>
        <path class="cls-16" d="M203.3,154.4c41.7,17.6,60.4,30.5,63.5,35.1,3.1,4.5-26,27.4-27.9,25.8-7.3-6.3-34.2-13.6-34.2-13.6l-1.5-47.3Z"/>
        <path class="cls-1" d="M200.7,193.7l3.5,8.7s27.4,6.5,34.7,12.8c.6.5,6.2-6.1,10-8.8-7.7-5.4-21-5.5-33-9.1-3.9-1.2-11.6-2.9-15.3-3.6Z"/>
        <path class="cls-13" d="M206.1,287.8c8.2.6,15.1-3.8,17.4-9.3,2.2-5.4,16.6-31.8,16.6-31.8l-13.4-11.3s-6.2,17.2-13.5,23.1c-7.3,5.8-7.1,29.3-7.1,29.3Z"/>
        <path class="cls-16" d="M267.1,189.9l-30.1,10.8s-3,8.9-17.6,42.7l26.5,31.2c32-69.9,21.2-84.7,21.2-84.7Z"/>
        <path class="cls-1" d="M219.4,243l5.7,6.9c2.1-4.7,4-9.7,5.6-15,4.1-12.8,6-24.6,5.9-33h-.5c0,.1-2.6,8.3-16.7,41.2Z"/>
        <path class="cls-16" d="M10.2,143c7.8-6.4,113.5-6.1,120.5-6.2,7-.2-30.1,52.3-30.1,52.3,0,0-80.6-7.3-87.9-13.4-7.3-6.1-7.3-28.7-2.5-32.6Z"/>
        <path class="cls-14" d="M95.5,173.4c-31.2,0-68.8-9.6-88.4-19.8-.5,8.1,1.2,18.2,5.7,22.1,7.3,6.1,86.6,17.4,86.6,17.4,0,0,7.7-11.2,12.8-20.7-5,.7-10.5,1-16.6,1Z"/>
        <polygon class="cls-17" points="92.9 188.3 79.5 204.7 111.6 219.5 120.6 204.9 92.9 188.3"/>
        <path class="cls-13" d="M109.1,208.3c0-3.4.3-6.7.9-9.8l-17-10.2-13.4,16.3,30.5,14.1c-.6-3.2-1-6.8-1-10.5Z"/>
        <path class="cls-14" d="M150.8,154.7c15.8,0,30-2.6,39.8-6.7-14.3-6.7-31.9-13.8-40-13.9-3.8,0-12.3,1.2-21.3,2.7-4.3,0-16.6,0-31.7.3,3.4,9.9,25.9,17.6,53.2,17.6Z"/>
        <path class="cls-13" d="M134,136.2s10.3,8.7,22.2,13.2c0,0,11.9-3.9,18.3-7.7,0,0-13.3-6.5-21.1-8-6.6-1.3-19.5,2.5-19.5,2.5Z"/>
        <g>
          <path class="cls-9" d="M175.4,238.9c-.1-1.5-1.1-2.7-2.3-2.7s-2.1,1.2-2,2.7,1.1,2.7,2.3,2.7,2.1-1.2,2-2.7Z"/>
          <path class="cls-9" d="M174.8,222.1c-.1-1.5-1.1-2.7-2.3-2.7s-2.1,1.2-2,2.7c.1,1.5,1.1,2.7,2.3,2.7s2.1-1.2,2-2.7Z"/>
          <path class="cls-9" d="M173.9,203c-.1-1.5-1.1-2.7-2.3-2.7s-2.1,1.2-2,2.7c.1,1.5,1.1,2.7,2.3,2.7s2.1-1.2,2-2.7Z"/>
          <path class="cls-9" d="M172.1,185.6c-.1-1.5-1.1-2.7-2.3-2.7s-2.1,1.2-2,2.7,1.1,2.7,2.3,2.7,2.1-1.2,2-2.7Z"/>
          <path class="cls-9" d="M171.2,165.8c-.1-1.5-1.1-2.7-2.3-2.7s-2.1,1.2-2,2.7c.1,1.5,1.1,2.7,2.3,2.7s2.1-1.2,2-2.7Z"/>
          <path class="cls-9" d="M183.3,303.5l-7.7-144.3c-3.2-1.2-30.2-12.6-42.2-23l1.5-.3c12.6,10.9,42.2,21.6,42.5,21.7h.3c0,.1,0,.4,0,.4l6.5,145.4h-1Z"/>
        </g>
        <path class="cls-10" d="M142,134.3l6.2-27.2,24.8,4.5-5,27.1c-9.5,2.3-18.6,2.6-26-4.4Z"/>
        <path class="cls-17" d="M177.2,112.2c6,2.3,8-2.4,9.5-5.3,1.6-2.9,3.4-6.8,1.6-8.4-1.8-1.6-4.9,1.5-7.8,5.1-2.4,3-3.4,8.6-3.4,8.6Z"/>
        <path class="cls-10" d="M179.5,110.4c3.6,1.3,4.9-1.7,5.9-3.6,1-1.9,2.2-4.5,1.2-5.5-1-1-3,1.1-4.9,3.5-1.5,2-2.2,5.6-2.2,5.6Z"/>
        <path class="cls-17" d="M179.1,110.2c2.5,1.4,3.3-.5,3.9-1.6.6-1.1,1.4-2.7.6-3.5-.8-.8-2,.3-3.2,1.7-1,1.1-1.3,3.5-1.3,3.5Z"/>
        <path class="cls-4" d="M188.3,86.3c-4.3,13.5-5.7,18.5-7.3,29-.8,5.2-5.4,1.8-5.4,1.8l10.2-32.7,2.4,1.9Z"/>
        <path class="cls-17" d="M145.4,105.7c-6.4-.6-6.6-6-7-9.5-.4-3.5-.7-8.1,1.5-8.8,2.2-.7,4.1,3.7,5.4,8.5,1.1,4,0,9.8,0,9.8Z"/>
        <path class="cls-10" d="M143.9,102.5c-4-.2-4.2-3.6-4.6-5.7-.4-2.2-.6-5,.7-5.5,1.4-.5,2.6,2.2,3.6,5.1.8,2.4.3,6.1.3,6.1Z"/>
        <path class="cls-17" d="M144.2,102.8c-2.8,0-2.9-1.8-3.1-3-.2-1.1-.4-2.6.5-2.9,1-.3,1.8,1.1,2.5,2.7.5,1.3.1,3.2.1,3.2Z"/>
        <path class="cls-4" d="M148.4,75.5c-2,14.1-2.9,19.3-6.3,29.4-1.7,5,4.4,4.3,4.4,4.3l5.1-34.1-3.2.4Z"/>
        <path class="cls-17" d="M143.4,125.2c-.9-3.1,4.6-40.2,7.3-46.9,2.6-6.7,19.7-6.3,23.4-5.6,3.7.7,10.7,11.1,11.6,13.7.9,2.6-12.6,42.1-14.6,44.3-2.9,3.2-25.8.6-27.7-5.6Z"/>
        <path class="cls-19" d="M188.4,88.7c-12.9-11.7-27.4-13.2-42.5-10.8l-1-29.1,41-7.5,15.5,28.3-13,19.2Z"/>
        <path class="cls-16" d="M168.4,64.1c-9.1-.9-17.2,3.9-21,13.6,14.1-1.9,27.6-.4,39.7,9.9.2-13-7.9-22.4-18.7-23.5Z"/>
        <g>
          <path class="cls-19" d="M178.5,81.8c.5.2.9.5,1.4.8l6-18.2-7.4,17.4Z"/>
          <path class="cls-19" d="M170,78.5c.5.1,1,.3,1.5.4l4.2-18.8-5.8,18.4Z"/>
          <path class="cls-19" d="M161.6,77.1c.5,0,1.1,0,1.6.2l1.9-19.1-3.5,18.9Z"/>
          <path class="cls-19" d="M152.5,77.2c.5,0,1.1,0,1.6-.1l-.9-19.1-.7,19.2Z"/>
        </g>
        <path class="cls-16" d="M238.2,52.9c-1.8-9.6-4.5-19.5-10.8-26.8-6.3-7.4-16.6-11.4-25.6-7.5-1.2.5-2.5,1.5-2.4,2.9-1.1-4-3.9-7.3-7.2-9.3-3.3-2.1-7.1-3-10.9-3.7-4.5-.7-9.1-1-13.4.5-4.3,1.5-8.3,4.8-9.7,9.5-6.6-10.3-19.9-14-29.8-8.5-3.4,1.9-6.3,4.7-8.8,7.8-3.1,3.9-5.7,8.4-6.7,13.4-1.9,9.1,1.9,19.4,9,24.6,7,5.2,16.8,5.1,23.5-.3l3.8,1.4c4.1-.5,8.3-.8,12.5-.7,8.9.2,18.4,1.9,25.1,8.2,2.5,2.3,4.6,5.2,7.7,6.5,2.9,1.2,7,0,7.9-3-.8,4.7,1.7,9.4,5.5,11.9,3.9,2.6,9,3.1,13.8,2.5,5-.6,10.2-2.4,13.6-6.4,5.3-6.2,4.7-15.2,3.3-23.1Z"/>
        <path class="cls-16" d="M107.3,196c-5.9,19-25.7,45.5-25.7,45.5,0,0-64.2-42.7-70-60.5-5.9-17.9-4.7-32.2-3.3-34.8.9-1.6,34.5,13.8,62.7,28.7,18.8,9.9,36.3,21.2,36.3,21.2Z"/>
        <path class="cls-14" d="M68.1,218.9c-35.7-24.2-59.6-54.6-58.8-72.8-.5-.1-.9-.1-1,0-1.5,2.7-2.6,17,3.3,34.8,5.9,17.9,70,60.5,70,60.5,0,0,3-4.1,7.1-10.1-6.8-3.6-13.7-7.7-20.6-12.4Z"/>
        <path class="cls-17" d="M138.2,221.9c.8-3.5,0-7.3-1.9-8.4s-4,.7-4.9,4.2,0,7.3,1.9,8.4c1.9,1.2,4-.7,4.9-4.2Z"/>
        <path class="cls-17" d="M136.3,212.1c-.9-3.8-3.4-6.9-5.6-6.9s-3.3,3.1-2.4,6.9c.9,3.8,3.4,6.9,5.6,6.9s3.3-3.1,2.4-6.9Z"/>
        <g>
          <polygon class="cls-2" points="152.1 234 152 233.4 152.6 233.3 126.7 207.6 126.9 209.3 152.1 234"/>
          <path class="cls-2" d="M140.1,221.8c1.6-1.3-16.4-19.6-17.1-20.3-.7-.7-1.7,4.8-1.3,5.5.4.7,12.7,13.1,13.4,13.6.6.5,4.6,1.5,5,1.2Z"/>
          <g>
            <path class="cls-2" d="M151.3,230.8c.3,0,.7,0,1.1,0,5.6,0,17.9,4.2,23,9.5,5.9,6.1,6.5,13.9,1.4,18.8-2.2,2.2-5,3.3-8,3.2-3.7,0-7.5-1.9-10.7-5.2-6-6.2-10.3-23.6-8-25.8.2-.2.6-.4,1.2-.5ZM170.5,261.4c2.2-.3,4.2-1.3,5.8-2.9,4.8-4.6,4.2-11.9-1.4-17.8-5.1-5.3-17.7-9.2-22.5-9.3-1.3,0-1.7.2-1.8.3-1.7,1.7,2,18.4,8.1,24.7,3.1,3.2,6.7,5,10.1,5,.6,0,1.1,0,1.7-.1Z"/>
            <path class="cls-2" d="M150.7,231c.1,0,.2,0,.4,0,3.3,0,16,5.8,21.8,11.8,5.9,6.1,7.5,12.8,4,16.3-1.2,1.2-2.8,1.7-4.6,1.7-3.5,0-7.6-2.3-11.4-6.3-5.7-6-12.4-21.5-10.7-23.2.1-.1.3-.2.6-.3ZM173.3,259.9c1.2-.2,2.2-.7,3-1.4,3.2-3.1,1.6-9.4-4-15.2-6.3-6.5-20.6-12.4-21.7-11.5-.9,1,4.4,15.6,10.7,22.2,3.6,3.8,7.6,6,10.9,6.1.4,0,.7,0,1.1,0Z"/>
            <path class="cls-2" d="M150.3,231.1h.2c1.3,0,12.9,9,18.8,15.1,4.6,4.8,9.4,11,7.6,12.8-.3.2-.6.4-1,.4-2.1,0-6.4-3.2-11.4-8.4-2.7-2.8-6.3-7.2-9.7-11.8-5.3-7.2-4.8-7.7-4.6-7.9h.1ZM176,258.6c.1,0,.2,0,.3-.1.8-.8-1.1-4.9-7.6-11.7-5.5-5.7-15.2-13.2-17.8-14.7,1.3,2.6,8.5,12.6,14,18.3,5.8,6,9.5,8.2,10.9,8.2,0,0,.1,0,.2,0Z"/>
          </g>
        </g>
        <path class="cls-3" d="M214.8,216.4c-5.3,7-7.4,17-15.1,21.5-1.6.9-4.3,1.2-4.9-.5-.2-.4-.2-.9-.1-1.4.1-3.5,4.2-10.6.3-10.5-3.2.6-5,3.7-6.3,6.6-1.8,4-3.2,8.2-4.3,12.5-.5,2.1-1,4.2-2.1,6-1.1,1.8-3.2,3.2-5.3,2.9-7.1-1-4.3-6.4-5.5-6.9-2,.2-1.7,5.2-2.5,7.7-.2.5-.3,1-.8,1.2-.5.3-1.2.1-1.8-.1-4-1.7-6.5-5.7-7.6-9.8-1.1-4.1-.9-8.4-1.1-12.6,0-.8-.1-1.6-.7-2.1-1-.8-2.5,0-3.3,1-2.1,2.8-2.1,6.7-1.2,10.1.9,3.4,2.5,6.7,3.5,10.1.3,1.1-.4,4-1.6,4.4-.6.2-1.2-.1-1.8-.4-3.2-1.7-6.5-9-8.9-6.3-2.4,2.8,5.4,4.2,7.6,7.3.3.5.7.9.7,1.5.2,1.4-2.3,4.3-3.6,4.5-4.8.8-11.6-4.3-11.2-2.2.3,1.3,3.9.7,3.2,4.5-5.8,1.7-12.1-.6-17.6-3.4-5.5-2.8-20.3-10.6-20.3-6.8,0,7.9,19.1,1.9,22.4,13.4,1.2,4.3-16.6-3.1-17.7-1.5-.8,1.6,5.7,4.6,9.3,5.2,3.6.6,7.2.3,10.8,0l71.8-17.2c2.3-.3,4-2.3,4.8-4.4.8-2.1,1-4.4,1.7-6.6,1-3.1,4.4-9.5,6.3-12,7.7-10.2,26.2-19.4,23-25.8-2.8-5.6-15.3,4.4-20,10.5Z"/>
        <path class="cls-13" d="M217.5,285.2c-3.5,4-12.2,6.9-13.7,7.1-1.5.2-2.8-4.2-1.4-5,1.4-.8,10.5-3.9,14.2-6.7,2.3-1.7,2.9,2.3.9,4.7Z"/>
        <path class="cls-15" d="M107.6,275l110.5-38.2c5.3,14.5,4.1,58.4-30.5,67.2-49.6,12.5-76.3-19.2-79.9-29Z"/>
        <path class="cls-12" d="M108.3,274.7c15.4,6.6,38.6,8.7,63.5,4.3,19-3.3,35.8-9.7,48.1-17.7,1.1-10,0-19.3-1.9-24.6l-109.7,38Z"/>
        <path class="cls-18" d="M111.4,281.5c1.7,2.3,3.9,4.8,6.7,7.4l102.2-35.4c0-3.4-.2-6.6-.6-9.5l-108.3,37.5Z"/>
        <path class="cls-13" d="M204,281.1c2-1.3,7.4-3.6,9.6-4.9,1.6-1,5.1-1.1,8.7-3,3.7-1.9,8.9-15,1.5-12.7-7,2.1-8.9,6.6-12.5,9.7-1.9,1.6-5.1,3-9.2,6.5-1.2,1,.6,5.2,1.9,4.4Z"/>
        <path class="cls-13" d="M217.2,284.3c-4.3,3.9-14,6.1-15.5,6.2-1.6,0-2.3-4.5-.7-5.2,1.6-.8,11.7-3.3,16-5.8,2.7-1.6,2.7,2.6.2,4.8Z"/>
        <path class="cls-11" d="M236.4,70.9c-12.1,4.5-27.3-5.9-33.8-23.4-3.9-10.5-3.8-21.2-.4-29-.1,0-.3.1-.4.2-1.2.5-2.5,1.5-2.4,2.9,0-.3-.2-.6-.3-.9-3.4,9.1-11.1,15.4-20,15.4s-17.9-7.4-20.8-17.7c-2.3,13-12.6,22.7-24.9,22.7s-15.7-4.4-20.3-11.3c-.1.5-.3,1-.4,1.5-1.9,9.1,1.9,19.4,9,24.6,7,5.2,16.8,5.1,23.5-.3l3.8,1.4c4.1-.5,8.3-.8,12.5-.7,8.9.2,18.4,1.9,25.1,8.2,2.5,2.3,4.6,5.2,7.7,6.5,2.9,1.2,7,0,7.9-3-.8,4.7,1.7,9.4,5.5,11.9,3.9,2.6,9,3.1,13.8,2.5,5-.6,10.2-2.4,13.6-6.4,1.5-1.7,2.5-3.7,3.2-5.8-.5.3-1.1.5-1.6.7Z"/>
        <path class="cls-17" d="M116.1,202.2c9.8,1.4,9,.1,13.6,2.1,4.6,2,3,5.1,4,8.6,1,3.5,5.3,12,.9,13.6-4.4,1.6-16.1,1.7-18.2-1-2.1-2.7-2.9-5.7-6.1-6.8-3.2-1.1,5.8-16.5,5.8-16.5Z"/>
        <g>
          <path class="cls-5" d="M168.2,117.8c-.1.4-.3.8-.4,1.2-1.9,4.1-5.7,6.7-9,5.8-3.4-.9-5.1-5.3-3.8-10.2l13.2,3.2Z"/>
          <path class="cls-6" d="M165.4,121.3l-9.5-1.5c-.4-1.3-.6-2.9-.2-4.5l11.4,2.9c0,.3-.2.6-.3.9-.4.8-.8,1.5-1.4,2.1Z"/>
        </g>
        <path class="cls-8" d="M159.1,101.2c.2-2-.6-3.7-1.8-3.7-1.2,0-2.5,1.5-2.7,3.5-.2,2,.6,3.7,1.8,3.8,1.2,0,2.4-1.5,2.7-3.6Z"/>
        <path class="cls-8" d="M175,104.9c.2-2-.6-3.7-1.8-3.7-1.2,0-2.5,1.5-2.7,3.5-.2,2,.6,3.7,1.8,3.8,1.2,0,2.4-1.5,2.7-3.6Z"/>
        <path class="cls-4" d="M162,89.1l-8-.3c-1,0-1.9.9-2.1,2l-.3,2.3c-.1,1.2.5,2.1,1.5,2.1l8,.2c1,0,1.9-.9,2-2l.3-2.2c.1-1.1-.5-2.1-1.5-2.1Z"/>
        <path class="cls-4" d="M179.8,96l-6.5-4.4c-.8-.6-1.9-.2-2.5.8l-1.1,2c-.6,1-.3,2.2.5,2.8l6.6,4.3c.8.5,1.9.2,2.4-.8l1.1-1.9c.5-1,.3-2.2-.4-2.7Z"/>
        <path class="cls-4" d="M162.9,112.1c-.4-.2-1-.1-1.4,0-1,.4-2,.9-2.9,1.3-4.3,1.8-9.5,2.1-14.2.7-4.7-1.4-8.8-4.4-11-8.2l-.7.4c2.2,4.3,6.5,7.9,11.7,9.7,5.1,1.8,14,1.9,18.9.1,1.6-.6.4-1.7.2-3.2,0-.3-.2-.6-.5-.8Z"/>
        <path class="cls-4" d="M192.3,121.2c-3.9,2.2-9,2.8-13.7,1.7-4.7-1.1-9-3.8-11.7-7.4-.6-.8-1.1-1.7-1.8-2.5-.3-.3-.7-.7-1.2-.7-.4,0-.6.2-.8.5-1,1.2-2.6,1.5-1.6,2.8,3.2,3.9,10.7,8.1,16.1,9,5.3.9,10.9,0,15.1-2.7l-.3-.7Z"/>
        <path class="cls-10" d="M165.7,105.1s-.4.2-1,.6c.4,3.2.2,8.3-4.8,5.5,0,.1,0,.2,0,.4,8,5.8,6.6-4.4,5.9-6.5Z"/>
      </g>
    </g>
  </g>
</svg>